<svg version="1.0" xmlns="http://www.w3.org/2000/svg"
 width="626.000000pt" height="626.000000pt" viewBox="0 0 626.000000 626.000000"
 preserveAspectRatio="xMidYMid meet">

<g transform="translate(0.000000,626.000000) scale(0.100000,-0.100000)"
fill="#000000" stroke="none">
<path d="M1372 4610 c0 -14 2 -19 5 -12 2 6 2 18 0 25 -3 6 -5 1 -5 -13z"/>
<path d="M2015 4440 c-82 -21 -139 -64 -183 -139 l-27 -46 -3 -472 -3 -473 91
0 90 0 0 444 c0 432 1 444 21 469 35 46 65 48 512 45 l417 -3 0 93 0 92 -442
-1 c-244 -1 -456 -5 -473 -9z"/>
<path d="M3320 4358 l0 -93 427 3 c392 2 431 1 463 -15 19 -10 40 -29 47 -43
10 -19 13 -133 13 -462 l0 -438 90 0 90 0 0 453 c0 505 0 509 -67 586 -19 23
-58 54 -87 69 l-51 27 -462 3 -463 3 0 -93z"/>
<path d="M2110 3830 l0 -300 300 0 300 0 0 300 0 300 -300 0 -300 0 0 -300z
m420 5 l0 -115 -115 0 -115 0 0 115 0 115 115 0 115 0 0 -115z"/>
<path d="M3540 3830 l0 -300 298 2 297 3 3 298 2 297 -300 0 -300 0 0 -300z
m410 5 l0 -115 -115 0 -115 0 0 115 0 115 115 0 115 0 0 -115z"/>
<path d="M2920 3910 l0 -90 90 0 90 0 0 90 0 90 -90 0 -90 0 0 -90z"/>
<path d="M3220 3590 l0 -280 90 0 90 0 0 280 0 280 -90 0 -90 0 0 -280z"/>
<path d="M3630 3295 c0 -47 0 -88 0 -92 0 -5 38 -8 85 -9 l85 0 0 93 0 93 -85
0 -85 0 0 -85z"/>
<path d="M2570 3280 l0 -90 220 0 220 0 0 90 0 90 -220 0 -220 0 0 -90z"/>
<path d="M1802 2510 l3 -515 23 -45 c31 -58 57 -86 112 -118 l45 -27 473 -5
472 -5 0 93 0 92 -442 0 c-405 0 -445 2 -464 18 -43 34 -44 45 -44 451 l0 391
200 0 200 0 0 90 0 89 -290 3 -291 3 3 -515z"/>
<path d="M3710 3023 l-85 -4 3 -89 3 -90 85 0 84 0 0 95 c0 52 -1 94 -2 93 -2
-1 -41 -4 -88 -5z"/>
<path d="M2820 2930 l0 -90 90 0 90 0 0 90 0 90 -90 0 -90 0 0 -90z"/>
<path d="M3220 2740 l0 -280 93 0 92 0 0 187 0 188 38 3 37 3 0 90 0 89 -130
0 -130 0 0 -280z"/>
<path d="M3970 2930 l0 -90 90 0 90 0 0 90 0 90 -90 0 -90 0 0 -90z"/>
<path d="M4270 2495 c0 -469 -1 -476 -52 -503 -17 -9 -119 -12 -418 -10 l-395
3 -3 63 -3 62 -89 0 -90 0 0 -157 0 -158 517 5 c390 4 525 8 547 18 52 23 101
69 132 124 l29 53 3 468 3 467 -91 0 -90 0 0 -435z"/>
<path d="M3970 2663 l0 -93 90 0 90 0 0 89 0 90 -90 3 -90 3 0 -92z"/>
<path d="M2210 2620 l0 -90 160 0 160 0 0 -165 0 -165 90 0 90 0 0 255 0 255
-250 0 -250 0 0 -90z"/>
<path d="M3630 2515 l0 -95 85 0 85 0 0 95 0 95 -85 0 -85 0 0 -95z"/>
<path d="M2844 2465 c-3 -6 -3 -96 -2 -200 l3 -190 93 -3 92 -3 -2 203 -3 203
-89 0 c-51 0 -90 -4 -92 -10z"/>
<path d="M3630 2200 l0 -90 205 0 205 0 0 90 0 90 -205 0 -205 0 0 -90z"/>
<path d="M1371 1474 c0 -11 3 -14 6 -6 3 7 2 16 -1 19 -3 4 -6 -2 -5 -13z"/>
<path d="M2248 1373 c481 -2 1264 -2 1740 0 477 1 84 2 -873 2 -957 0 -1347
-1 -867 -2z"/>
</g>
</svg>
