<?xml version="1.0" encoding="UTF-8" standalone="no"?>
<!-- Created with Inkscape (http://www.inkscape.org/) -->

<svg
   width="62.510593mm"
   height="7.0207596mm"
   viewBox="0 0 62.510593 7.0207596"
   version="1.1"
   id="svg5"
   xmlns="http://www.w3.org/2000/svg"
   xmlns:svg="http://www.w3.org/2000/svg">
  <defs
     id="defs2" />
  <g
     id="layer1"
     transform="translate(-37.626706,-47.46918)">
    <g
       aria-label="RushOut"
       id="text113"
       style="font-size:8.46667px;stroke-width:0.264583">
      <path
         d="m 37.626705,54.242516 h 0.524934 l 0.499533,-2.379135 h 4.504269 c 0.6096,0 0.8382,0.2794 0.719667,0.821267 l -0.3302,1.557868 h 0.5334 l 0.338667,-1.600201 c 0.135466,-0.651934 -0.245534,-0.999067 -0.897467,-1.024467 0.872067,-0.186267 1.363134,-0.770467 1.507067,-1.447801 0.2286,-1.058333 -0.321733,-1.8796 -2.040467,-1.8796 h -4.097869 z m 1.126068,-2.827868 0.5588,-2.675468 h 3.598335 c 1.3462,0 1.769534,0.550334 1.583267,1.447801 -0.169334,0.8128 -0.787401,1.227667 -1.930401,1.227667 z"
         style="font-style:italic;font-weight:200;font-family:'PP Monument Extended';-inkscape-font-specification:'PP Monument Extended Ultra-Light Italic'"
         id="path964" />
      <path
         d="m 52.604243,49.306447 h -0.5334 l -0.499534,2.336801 c -0.372533,1.354667 -1.693334,2.302934 -3.268135,2.302934 -1.540934,0 -2.091267,-0.745067 -1.7526,-2.353734 l 0.4826,-2.286001 h -0.5334 l -0.508001,2.362201 c -0.372533,1.778001 0.381001,2.743201 2.142068,2.743201 1.27,0 2.413001,-0.5334 3.158068,-1.473201 l -0.2794,1.303868 h 0.541867 z"
         style="font-style:italic;font-weight:200;font-family:'PP Monument Extended';-inkscape-font-specification:'PP Monument Extended Ultra-Light Italic'"
         id="path966" />
      <path
         d="m 56.126368,54.411849 c 1.752601,0 2.675468,-0.381 2.861734,-1.253067 0.2286,-1.066801 -0.6096,-1.532467 -2.226734,-1.667934 l -0.524933,-0.04233 c -1.532468,-0.127 -2.226735,-0.389466 -2.074335,-1.058333 0.127,-0.567267 0.804334,-0.804334 2.286001,-0.804334 1.371601,0 2.108201,0.245533 2.328335,1.0414 h 0.541866 c -0.169333,-1.0922 -1.126067,-1.490133 -2.819401,-1.490133 -1.786467,0 -2.641601,0.3302 -2.819401,1.151467 -0.211667,0.999067 0.524934,1.4478 2.387601,1.608667 l 0.474134,0.04233 c 1.4224,0.118534 2.142067,0.364067 1.964267,1.134534 -0.143933,0.635 -0.872067,0.889 -2.362201,0.889 -1.363134,0 -2.167467,-0.423333 -2.345267,-1.2446 h -0.541867 c 0.09313,1.100667 1.1684,1.693334 2.870201,1.693334 z"
         style="font-style:italic;font-weight:200;font-family:'PP Monument Extended';-inkscape-font-specification:'PP Monument Extended Ultra-Light Italic'"
         id="path968" />
      <path
         d="m 60.046433,54.242516 h 0.524933 l 0.491067,-2.311401 c 0.364067,-1.380068 1.701801,-2.345268 3.293535,-2.345268 1.540934,0 2.091267,0.745067 1.752601,2.362201 l -0.491067,2.294468 h 0.524933 l 0.499534,-2.362201 c 0.381,-1.778001 -0.372534,-2.743201 -2.133601,-2.743201 -1.303867,0 -2.455334,0.5842 -3.183468,1.566333 l 0.694267,-3.234267 h -0.524934 z"
         style="font-style:italic;font-weight:200;font-family:'PP Monument Extended';-inkscape-font-specification:'PP Monument Extended Ultra-Light Italic'"
         id="path970" />
      <path
         d="m 71.857434,54.411849 c 2.429934,0 4.301068,-1.100667 4.656668,-2.794001 0.465667,-2.175934 -1.058333,-3.598335 -3.801535,-3.598335 -2.429934,0 -4.292601,1.092201 -4.656668,2.785535 -0.465667,2.1844 1.0668,3.606801 3.801535,3.606801 z M 70.0625,51.194514 c 0.194733,-0.905933 1.227667,-1.507067 2.548467,-1.507067 3.566235,0.561674 1.479869,3.011243 -0.651933,3.048001 -1.320801,0 -2.099734,-0.6096 -1.896534,-1.540934 z"
         style="font-style:italic;font-weight:800;font-family:'PP Monument Extended';-inkscape-font-specification:'PP Monument Extended Ultra-Bold Italic'"
         id="path972" />
      <path
         d="m 85.268639,49.154047 h -2.015067 l -0.465667,2.184401 c -0.2794,0.9398 -1.058334,1.4478 -2.235201,1.4478 -1.126067,0 -1.413934,-0.465667 -1.159934,-1.651 l 0.414867,-1.981201 H 77.79257 l -0.533401,2.480734 c -0.364066,1.693334 0.508001,2.777068 2.218268,2.777068 1.0668,0 2.065867,-0.397934 2.895601,-1.159934 l -0.211667,0.990601 h 2.023534 z"
         style="font-style:italic;font-weight:800;font-family:'PP Monument Extended';-inkscape-font-specification:'PP Monument Extended Ultra-Bold Italic'"
         id="path974" />
      <path
         d="m 88.147319,54.411849 c 0.491066,0 1.126067,-0.0762 1.7272,-0.220133 l 0.347134,-1.557868 c -0.635,0.127 -0.922867,0.169334 -1.227667,0.169334 -0.618067,0 -0.829734,-0.237067 -0.711201,-0.795867 l 0.3048,-1.422401 h 2.065868 l 0.3048,-1.430867 h -2.065867 l 0.3048,-1.439334 -2.108201,0.508 -0.194734,0.931334 h -0.956733 l -0.3048,1.430867 h 0.956733 l -0.270933,1.278467 c -0.372534,1.718734 0.2286,2.548468 1.828801,2.548468 z"
         style="font-style:italic;font-weight:800;font-family:'PP Monument Extended';-inkscape-font-specification:'PP Monument Extended Ultra-Bold Italic'"
         id="path976" />
      <g
         aria-label="&gt;&gt;"
         id="text1077"
         style="font-family:'Niagara Engraved';-inkscape-font-specification:'Niagara Engraved';fill:#22c55e;fill-opacity:1;stroke:none;stroke-width:0.0700042;stroke-opacity:1"
         transform="translate(60.467066,-19.41467)">
        <path
           d="m 31.831949,68.149918 0.330729,-0.330729 3.27422,3.04271 -3.27422,3.042709 -0.330729,-0.330729 2.943491,-2.71198 z"
           style="font-family:'MS PGothic';-inkscape-font-specification:'MS PGothic';fill:#22c55e;fill-opacity:1;stroke:none;stroke-opacity:1"
           id="path1079" />
        <path
           d="m 36.065284,68.149918 0.330729,-0.330729 3.27422,3.04271 -3.27422,3.042709 -0.330729,-0.330729 2.943491,-2.71198 z"
           style="font-family:'MS PGothic';-inkscape-font-specification:'MS PGothic';fill:#22c55e;fill-opacity:1;stroke:none;stroke-opacity:1"
           id="path1081" />
      </g>
    </g>
  </g>
</svg>
