<?xml version="1.0" encoding="UTF-8" standalone="no"?>
<!-- Created with Inkscape (http://www.inkscape.org/) -->

<svg
   width="198.94043mm"
   height="21.506889mm"
   viewBox="0 0 198.94043 21.506889"
   version="1.1"
   id="svg5"
   inkscape:version="1.2.2 (732a01da63, 2022-12-09)"
   sodipodi:docname="rushout.svg"
   xmlns:inkscape="http://www.inkscape.org/namespaces/inkscape"
   xmlns:sodipodi="http://sodipodi.sourceforge.net/DTD/sodipodi-0.dtd"
   xmlns="http://www.w3.org/2000/svg"
   xmlns:svg="http://www.w3.org/2000/svg">
  <sodipodi:namedview
     id="namedview7"
     pagecolor="#ffffff"
     bordercolor="#000000"
     borderopacity="0.25"
     inkscape:showpageshadow="2"
     inkscape:pageopacity="0.0"
     inkscape:pagecheckerboard="0"
     inkscape:deskcolor="#d1d1d1"
     inkscape:document-units="mm"
     showgrid="false"
     inkscape:zoom="1.2623761"
     inkscape:cx="411.92161"
     inkscape:cy="144.17256"
     inkscape:window-width="1484"
     inkscape:window-height="1205"
     inkscape:window-x="2737"
     inkscape:window-y="113"
     inkscape:window-maximized="0"
     inkscape:current-layer="text113" />
  <defs
     id="defs2" />
  <g
     inkscape:label="Camada 1"
     inkscape:groupmode="layer"
     id="layer1"
     transform="translate(41.65075,-39.966758)">
    <g
       aria-label="RushOut"
       id="text113"
       style="font-size:8.46667px;stroke-width:0.264583">
      <g
         id="g256">
        <path
           d="m -34.326167,60.286768 h 1.574802 l 1.498599,-7.137405 h 13.512807 c 1.8288,0 2.5146,0.8382 2.159001,2.463801 l -0.9906,4.673604 h 1.6002 l 1.016001,-4.800603 c 0.406398,-1.955802 -0.736602,-2.997201 -2.692401,-3.073401 2.616201,-0.558801 4.089402,-2.311401 4.521201,-4.343403 0.6858,-3.174999 -0.965199,-5.6388 -6.121401,-5.6388 h -12.293607 z m 3.378204,-8.483604 1.6764,-8.026404 h 10.795005 c 4.0386,0 5.308602,1.651002 4.749801,4.343403 -0.508002,2.4384 -2.362203,3.683001 -5.791203,3.683001 z"
           style="font-style:italic;font-weight:200;font-family:'PP Monument Extended';-inkscape-font-specification:'PP Monument Extended Ultra-Light Italic';stroke-width:0.793749"
           id="path964" />
        <path
           d="M 10.606447,45.478561 H 9.0062474 l -1.498602,7.010403 c -1.117599,4.064001 -5.080002,6.908802 -9.804405,6.908802 -4.622802,0 -6.273801,-2.235201 -5.2578,-7.061202 l 1.4478,-6.858003 h -1.6002 l -1.524003,7.086603 c -1.1175994,5.334003 1.143003,8.229603 6.426204,8.229603 3.81,0 7.239003,-1.6002 9.474204,-4.419603 l -0.8382,3.911604 h 1.625601 z"
           style="font-style:italic;font-weight:200;font-family:'PP Monument Extended';-inkscape-font-specification:'PP Monument Extended Ultra-Light Italic';stroke-width:0.793749"
           id="path966" />
        <path
           d="m 21.172822,60.794767 c 5.257803,0 8.026404,-1.143 8.585202,-3.759201 0.6858,-3.200403 -1.8288,-4.597401 -6.680202,-5.003802 l -1.574799,-0.12699 c -4.597404,-0.381 -6.680205,-1.168398 -6.223005,-3.174999 0.381,-1.701801 2.413002,-2.413002 6.858003,-2.413002 4.114803,0 6.324603,0.736599 6.985005,3.1242 h 1.625598 c -0.507999,-3.2766 -3.378201,-4.470399 -8.458203,-4.470399 -5.359401,0 -7.924803,0.9906 -8.458203,3.454401 -0.635001,2.997201 1.574802,4.3434 7.162803,4.826001 l 1.422402,0.12699 c 4.2672,0.355602 6.426201,1.092201 5.892801,3.403602 -0.431799,1.905 -2.616201,2.667 -7.086603,2.667 -4.089402,0 -6.502401,-1.269999 -7.035801,-3.7338 h -1.625601 c 0.27939,3.302001 3.5052,5.080002 8.610603,5.080002 z"
           style="font-style:italic;font-weight:200;font-family:'PP Monument Extended';-inkscape-font-specification:'PP Monument Extended Ultra-Light Italic';stroke-width:0.793749"
           id="path968" />
        <path
           d="m 32.933017,60.286768 h 1.574799 l 1.473201,-6.934203 c 1.092201,-4.140204 5.105403,-7.035804 9.880605,-7.035804 4.622802,0 6.273801,2.235201 5.257803,7.086603 l -1.473201,6.883404 h 1.574799 l 1.498602,-7.086603 c 1.143,-5.334003 -1.117602,-8.229603 -6.400803,-8.229603 -3.911601,0 -7.366002,1.7526 -9.550404,4.698999 l 2.082801,-9.702801 h -1.574802 z"
           style="font-style:italic;font-weight:200;font-family:'PP Monument Extended';-inkscape-font-specification:'PP Monument Extended Ultra-Light Italic';stroke-width:0.793749"
           id="path970" />
        <path
           d="m 68.36602,60.794767 c 7.289802,0 12.903204,-3.302001 13.970004,-8.382003 1.397001,-6.527802 -3.174999,-10.795005 -11.404605,-10.795005 -7.289802,0 -12.877803,3.276603 -13.970004,8.356605 -1.397001,6.5532 3.2004,10.820403 11.404605,10.820403 z m -5.384802,-9.652005 c 0.584199,-2.717799 3.683001,-4.521201 7.645401,-4.521201 10.698705,1.685022 4.439607,9.033729 -1.955799,9.144003 -3.962403,0 -6.299202,-1.8288 -5.689602,-4.622802 z"
           style="font-style:italic;font-weight:800;font-family:'PP Monument Extended';-inkscape-font-specification:'PP Monument Extended Ultra-Bold Italic';stroke-width:0.793749"
           id="path972"
           sodipodi:nodetypes="scscscccc" />
        <path
           d="m 108.59964,45.021361 h -6.04521 l -1.397,6.553203 c -0.8382,2.8194 -3.174999,4.3434 -6.7056,4.3434 -3.378201,0 -4.241802,-1.397001 -3.479802,-4.953 l 1.244601,-5.943603 h -6.045201 l -1.600203,7.442202 c -1.092198,5.080002 1.524003,8.331204 6.654804,8.331204 3.2004,0 6.197601,-1.193802 8.686803,-3.479802 l -0.635001,2.971803 h 6.070599 z"
           style="font-style:italic;font-weight:800;font-family:'PP Monument Extended';-inkscape-font-specification:'PP Monument Extended Ultra-Bold Italic';stroke-width:0.793749"
           id="path974" />
        <path
           d="m 117.23568,60.794767 c 1.47319,0 3.3782,-0.2286 5.1816,-0.660399 l 1.0414,-4.673604 c -1.905,0.381 -2.7686,0.508002 -3.683,0.508002 -1.8542,0 -2.48921,-0.711201 -2.13361,-2.387601 l 0.9144,-4.267203 h 6.19761 l 0.9144,-4.292601 h -6.1976 l 0.9144,-4.318002 -6.32461,1.524 -0.5842,2.794002 h -2.8702 l -0.9144,4.292601 h 2.8702 l -0.8128,3.835401 c -1.1176,5.156202 0.6858,7.645404 5.48641,7.645404 z"
           style="font-style:italic;font-weight:800;font-family:'PP Monument Extended';-inkscape-font-specification:'PP Monument Extended Ultra-Bold Italic';stroke-width:0.793749"
           id="path976" />
        <path
           d="m 129.69076,43.764964 1.65911,-1.214493 13.4907,9.461589 -13.60186,9.350433 -1.54795,-1.325646 8.83048,-8.13594 z"
           style="font-family:'MS PGothic';-inkscape-font-specification:'MS PGothic';fill:#22c55e;fill-opacity:1;stroke:none;stroke-width:0.210013;stroke-opacity:1"
           id="path1079"
           sodipodi:nodetypes="ccccccc" />
        <path
           d="m 142.13987,43.876117 1.6591,-1.214493 13.4907,9.461589 -13.60185,9.350433 -1.54795,-1.325646 8.83047,-8.13594 z"
           style="font-family:'MS PGothic';-inkscape-font-specification:'MS PGothic';fill:#22c55e;fill-opacity:1;stroke:none;stroke-width:0.210013;stroke-opacity:1"
           id="path400"
           sodipodi:nodetypes="ccccccc" />
        <rect
           style="fill:#000000;stroke-width:0.161072"
           id="rect454"
           width="8.4884367"
           height="1.1789486"
           x="-41.650753"
           y="59.154282" />
        <rect
           style="fill:#000000;stroke-width:0.161072"
           id="rect508"
           width="6.837904"
           height="1.1003506"
           x="-39.450043"
           y="56.08342" />
      </g>
    </g>
  </g>
</svg>
